<mxfile host="app.diagrams.net" agent="Mozilla/5.0 (Windows NT 10.0; Win64; x64) AppleWebKit/537.36 (KHTML, like Gecko) Chrome/128.0.0.0 Safari/537.36 Edg/128.0.0.0" version="24.7.7">
  <diagram name="PÃ¡gina-1" id="7UBf_aBmHxRgRBL3Aiuz">
    <mxGraphModel dx="1042" dy="614" grid="1" gridSize="10" guides="1" tooltips="1" connect="1" arrows="1" fold="1" page="1" pageScale="1" pageWidth="827" pageHeight="1169" math="0" shadow="0">
      <root>
        <mxCell id="0" />
        <mxCell id="1" parent="0" />
        <mxCell id="TNEEqeKf6-7XHtan3CCN-29" value="Curso" style="rounded=0;whiteSpace=wrap;html=1;fontFamily=Helvetica;fontSize=11;fontColor=default;labelBackgroundColor=default;" vertex="1" parent="1">
          <mxGeometry x="350" y="470" width="100" height="50" as="geometry" />
        </mxCell>
        <mxCell id="TNEEqeKf6-7XHtan3CCN-31" value="" style="triangle;whiteSpace=wrap;html=1;fontFamily=Helvetica;fontSize=11;fontColor=default;labelBackgroundColor=default;rotation=90;" vertex="1" parent="1">
          <mxGeometry x="382" y="540" width="36" height="60" as="geometry" />
        </mxCell>
        <mxCell id="TNEEqeKf6-7XHtan3CCN-32" value="Curso EAD" style="rounded=0;whiteSpace=wrap;html=1;fontFamily=Helvetica;fontSize=11;fontColor=default;labelBackgroundColor=default;" vertex="1" parent="1">
          <mxGeometry x="260" y="585" width="100" height="50" as="geometry" />
        </mxCell>
        <mxCell id="TNEEqeKf6-7XHtan3CCN-33" value="Curso presencial" style="rounded=0;whiteSpace=wrap;html=1;fontFamily=Helvetica;fontSize=11;fontColor=default;labelBackgroundColor=default;" vertex="1" parent="1">
          <mxGeometry x="440" y="585" width="100" height="50" as="geometry" />
        </mxCell>
      </root>
    </mxGraphModel>
  </diagram>
</mxfile>
